##     ## ##    ## ####  #######  ##     ## ######## 
##     ## ###   ##  ##  ##     ## ##     ## ##       
##     ## ####  ##  ##  ##     ## ##     ## ##       
##     ## ## ## ##  ##  ##     ## ##     ## ######   
##     ## ##  ####  ##  ##  ## ## ##     ## ##       
##     ## ##   ###  ##  ##    ##  ##     ## ##       
 #######  ##    ## ####  ##### ##  #######  ######## 


#############Credits To DiNGiE & Unique#############


General
Complete name : The Avengers 2012 720p BDRip x264 AAC-UNiQUE.mp4
Subtitles : Hardcoded For Foreign Parts Only

Format : MPEG-4
Format profile : Base Media
Codec ID : isom
File size : 4.00 GiB
Duration : 2h 22mn
Overall bit rate mode : Variable
Overall bit rate : 4 007 Kbps
Encoded date : UTC 2012-08-21 21:37:15

Video
ID : 1
Format : AVC
Format/Info : Advanced Video Codec
Format profile : High@L4.1
Format settings, CABAC : Yes
Format settings, ReFrames : 3 frames
Codec ID : avc1
Codec ID/Info : Advanced Video Coding
Duration : 2h 22mn
Bit rate mode : Variable
Bit rate : 3 663 Kbps
Maximum bit rate : 40.0 Mbps
Width : 1 280 pixels
Height : 720 pixels
Display aspect ratio : 16:9
Frame rate mode : Constant
Frame rate : 23.976 fps
Color space : YUV
Chroma subsampling : 4:2:0
Bit depth : 8 bits
Scan type : Progressive
Bits/(Pixel*Frame) : 0.166
Stream size : 3.66 GiB (91%)
Writing library : x264 core 125 r2208 d9d2288

Audio
ID : 2
Format : AAC
Format/Info : Advanced Audio Codec
Format profile : LC
Codec ID : 40
Duration : 2h 22mn
Bit rate mode : Variable
Bit rate : 341 Kbps
Maximum bit rate : 434 Kbps
Channel(s) : 6 channels
Channel positions : Front: L C R, Side: L R, LFE
Sampling rate : 48.0 KHz
Compression mode : Lossy
Stream size : 348 MiB (9%)
Language : English
Encoded date : UTC 2012-08-21 21:38:55

Source : THE AVENGERS BD2D-BLUEBIRD - Thanks! 

Storyline
Nick Fury of S.H.I.E.L.D. brings together a team of super humans to form The Avengers to help save the Earth from Loki and his army.

iMDB: 
http://www.imdb.com/title/tt0848228

Screen Shots:
Look at the comment


#############Credits To DiNGiE & Unique#############


##     ## ##    ## ####  #######  ##     ## ######## 
##     ## ###   ##  ##  ##     ## ##     ## ##       
##     ## ####  ##  ##  ##     ## ##     ## ##       
##     ## ## ## ##  ##  ##     ## ##     ## ######   
##     ## ##  ####  ##  ##  ## ## ##     ## ##       
##     ## ##   ###  ##  ##    ##  ##     ## ##       
 #######  ##    ## ####  ##### ##  #######  ######## 